<?xml version="1.0" encoding="UTF-8" standalone="no"?>
<svg width="1009px" height="511px" viewBox="0 0 1009 511" version="1.1" xmlns="http://www.w3.org/2000/svg" xmlns:xlink="http://www.w3.org/1999/xlink" xmlns:sketch="http://www.bohemiancoding.com/sketch/ns">
    <!-- Generator: Sketch 3.2.2 (9983) - http://www.bohemiancoding.com/sketch -->
    <title>Slice 2</title>
    <desc>Created with Sketch.</desc>
    <defs></defs>
    <g id="logo" stroke="none" stroke-width="1" fill="none" fill-rule="evenodd" sketch:type="MSPage">
        <g id="bnb-horizontal" sketch:type="MSLayerGroup" transform="translate(123.000000, 88.000000)">
            <g id="noun_121813_cc">
                <g id="Group">
                    <g id="frame">
                        <g id="frame_1_"></g>
                    </g>
                    <g transform="translate(69.454545, 92.680000)" id="Shape" fill="#FF5A5F" sketch:type="MSShapeGroup">
                        <path d="M149.939134,145.2097 L41.8877056,145.2097 C32.769316,145.2097 25.3509091,137.78537 25.3509091,128.6597 L25.3509091,72.37315 C25.3509091,70.54272 26.8292987,69.06315 28.6582684,69.06315 C30.4872381,69.06315 31.9656277,70.54272 31.9656277,72.37315 L31.9656277,128.6597 C31.9656277,134.13444 36.4173333,138.5897 41.8877056,138.5897 L149.939134,138.5897 C155.409506,138.5897 159.861212,134.13444 159.861212,128.6597 L159.861212,72.37315 C159.861212,70.54272 161.339602,69.06315 163.168571,69.06315 C164.997541,69.06315 166.475931,70.54272 166.475931,72.37315 L166.475931,128.6597 C166.475931,137.78537 159.057524,145.2097 149.939134,145.2097 L149.939134,145.2097 Z"></path>
                        <path d="M185.208814,59.92424 C184.603567,59.92424 183.995013,59.75874 183.445991,59.4145 L104.353801,9.42357 C99.2637749,6.20294 90.6811775,6.24928 85.6176104,9.51625 L8.40730736,59.39133 C6.87930736,60.38433 4.82543723,59.94079 3.8365368,58.40495 C2.844329,56.86911 3.28751515,54.82022 4.82212987,53.83053 L82.0291255,3.95545 C89.2557056,-0.71827 100.60987,-0.77785 107.886061,3.82305 L186.978251,53.81398 C188.522788,54.79043 188.982511,56.83601 188.010147,58.38178 C187.378442,59.37478 186.306857,59.92424 185.208814,59.92424 L185.208814,59.92424 Z"></path>
                    </g>
                </g>
            </g>
            <text id="MyBnB" sketch:type="MSTextLayer" font-family="Helvetica Neue" font-size="148.584906" font-weight="206" fill="#FF5A5F">
                <tspan x="330.735931" y="237.3">MyBnB</tspan>
            </text>
        </g>
    </g>
</svg>