<?xml version="1.0" encoding="UTF-8" standalone="no"?>
<svg width="1009px" height="511px" viewBox="0 0 1009 511" version="1.1" xmlns="http://www.w3.org/2000/svg" xmlns:xlink="http://www.w3.org/1999/xlink" xmlns:sketch="http://www.bohemiancoding.com/sketch/ns">
    <!-- Generator: Sketch 3.2.2 (9983) - http://www.bohemiancoding.com/sketch -->
    <title>Slice 3</title>
    <desc>Created with Sketch.</desc>
    <defs></defs>
    <g id="logo" stroke="none" stroke-width="1" fill="none" fill-rule="evenodd" sketch:type="MSPage">
        <g id="bnb-horizontal-white" sketch:type="MSLayerGroup" transform="translate(122.000000, 90.000000)">
            <g id="noun_121813_cc">
                <g id="Group">
                    <g id="frame">
                        <g id="frame_1_"></g>
                    </g>
                    <g transform="translate(72.454545, 92.680000)" id="Shape" fill="#FFFFFF" sketch:type="MSShapeGroup">
                        <path d="M146.939134,145.2097 L38.8877056,145.2097 C29.769316,145.2097 22.3509091,137.78537 22.3509091,128.6597 L22.3509091,72.37315 C22.3509091,70.54272 23.8292987,69.06315 25.6582684,69.06315 C27.4872381,69.06315 28.9656277,70.54272 28.9656277,72.37315 L28.9656277,128.6597 C28.9656277,134.13444 33.4173333,138.5897 38.8877056,138.5897 L146.939134,138.5897 C152.409506,138.5897 156.861212,134.13444 156.861212,128.6597 L156.861212,72.37315 C156.861212,70.54272 158.339602,69.06315 160.168571,69.06315 C161.997541,69.06315 163.475931,70.54272 163.475931,72.37315 L163.475931,128.6597 C163.475931,137.78537 156.057524,145.2097 146.939134,145.2097 L146.939134,145.2097 Z"></path>
                        <path d="M182.208814,59.92424 C181.603567,59.92424 180.995013,59.75874 180.445991,59.4145 L101.353801,9.42357 C96.2637749,6.20294 87.6811775,6.24928 82.6176104,9.51625 L5.40730736,59.39133 C3.87930736,60.38433 1.82543723,59.94079 0.836536797,58.40495 C-0.155670996,56.86911 0.287515152,54.82022 1.82212987,53.83053 L79.0291255,3.95545 C86.2557056,-0.71827 97.6098701,-0.77785 104.886061,3.82305 L183.978251,53.81398 C185.522788,54.79043 185.982511,56.83601 185.010147,58.38178 C184.378442,59.37478 183.306857,59.92424 182.208814,59.92424 L182.208814,59.92424 Z"></path>
                    </g>
                </g>
            </g>
            <text id="MyBnB" sketch:type="MSTextLayer" font-family="Helvetica Neue" font-size="148.584906" font-weight="206" fill="#FFFFFF">
                <tspan x="330.735931" y="237.3">MyBnB</tspan>
            </text>
        </g>
    </g>
</svg>